<svg id="Layer_1" height="512" viewBox="0 0 512 512" width="512" xmlns="http://www.w3.org/2000/svg" data-name="Layer 1"><path d="m256 101.35v168.57.48l-109.63-11.15 109.63-159.07.55.79z" fill="#d8ff33"/><path d="m365.63 259.25-109.63 11.15v-.48-168.57l.55-.38z" fill="#9be147"/><path d="m256 270.4 166.26 141.42 72.99-165.75z" fill="#50dd5a"/><path d="m422.26 411.82h-332.52l166.26-141.42z" fill="#42b254"/><path d="m16.75 246.07 72.99 165.75 166.26-141.42z" fill="#50dd5a"/><path d="m256 101.35.55-.38-.55-.79-109.63 159.07 28.849 2.934 80.781-117.211z" fill="#f7ffae"/><path d="m16.75 246.07 72.99 165.75 21.825-18.564-63.409-143.992z" fill="#83ff89"/><g fill="#f4f8fc"><path d="m62.377 299.135a6 6 0 0 1 -5.494-3.584l-4.259-9.671a6 6 0 0 1 10.982-4.836l4.259 9.671a6 6 0 0 1 -5.488 8.42z"/><path d="m95.1 373.433a6 6 0 0 1 -5.5-3.583l-25.75-58.474a6 6 0 1 1 10.982-4.835l25.75 58.473a6 6 0 0 1 -5.488 8.419z"/></g></svg>