<?xml version="1.0" encoding="iso-8859-1"?>
<!-- Generator: Adobe Illustrator 19.0.0, SVG Export Plug-In . SVG Version: 6.00 Build 0)  -->
<svg version="1.1" id="Capa_1" xmlns="http://www.w3.org/2000/svg" xmlns:xlink="http://www.w3.org/1999/xlink" x="0px" y="0px"
	 viewBox="0 0 469.333 469.333" style="enable-background:new 0 0 469.333 469.333;" xml:space="preserve">
<path style="fill:#559AFF;" d="M209.673,24.994l-184.68,184.68C8.99,225.676,0,247.381,0,270.013v156.654
	c0,23.564,19.103,42.667,42.667,42.667c0,0,0,0,0,0h384c23.564,0,42.667-19.103,42.667-42.667v0v-384
	C469.333,19.103,450.231,0,426.667,0c0,0,0,0,0,0H270.013C247.381,0,225.676,8.99,209.673,24.994z"/>
<path style="fill:#257DFF;" d="M188.34,24.994L24.994,188.34C8.99,204.343,0,226.048,0,248.68v177.987
	c0,23.564,19.103,42.667,42.667,42.667c0,0,0,0,0,0h384c23.564,0,42.667-19.103,42.667-42.667v0v-384
	C469.333,19.103,450.231,0,426.667,0c0,0,0,0,0,0H248.68C226.048,0,204.343,8.99,188.34,24.994L188.34,24.994z"/>
<path style="fill:#6AA7FF;" d="M106.667,106.667v256l256-256H106.667z"/>
<path style="fill:#5399FF;" d="M106.667,362.667v-256L24.994,188.34C16.04,197.437,9.25,208.435,5.13,220.517L106.667,362.667z"/>
<path style="fill:#428FFF;" d="M5.13,220.517C1.84,229.547,0.105,239.07,0,248.68v177.987c-0.014,11.319,4.483,22.176,12.497,30.169
	l94.169-94.169L5.13,220.517z"/>
<path style="fill:#82B5FF;" d="M220.516,5.13c-12.081,4.12-23.079,10.909-32.176,19.863l-81.673,81.673h256L220.516,5.13z"/>
<path style="fill:#9AC3FF;" d="M362.667,106.667l94.169-94.169C448.843,4.483,437.985-0.015,426.667,0H248.68
	c-9.611,0.105-19.134,1.84-28.164,5.13L362.667,106.667z"/>
<path style="fill:#3888FF;" d="M362.667,106.667l-256,256l341.76,100.518c6.067-3.619,11.139-8.691,14.758-14.758L362.667,106.667z"
	/>
<path style="fill:#559AFF;" d="M362.667,106.667l100.518,341.76c3.988-6.56,6.114-14.083,6.148-21.76v-384
	c0.015-11.319-4.483-22.177-12.497-30.169L362.667,106.667z"/>
<g>
</g>
<g>
</g>
<g>
</g>
<g>
</g>
<g>
</g>
<g>
</g>
<g>
</g>
<g>
</g>
<g>
</g>
<g>
</g>
<g>
</g>
<g>
</g>
<g>
</g>
<g>
</g>
<g>
</g>
</svg>
